<?xml version="1.0" encoding="utf-8"?>
<!-- Generator: Adobe Illustrator 26.0.1, SVG Export Plug-In . SVG Version: 6.00 Build 0)  -->
<svg version="1.1" xmlns="http://www.w3.org/2000/svg" xmlns:xlink="http://www.w3.org/1999/xlink" x="0px" y="0px"
	 viewBox="0 0 3501.89 2125" enable-background="new 0 0 3501.89 2125" xml:space="preserve">
<g id="图层_1">
	<image overflow="visible" width="3501" height="2125" xlink:href="cdut.png"  transform="matrix(1 0 0 1 1.8824 0)">
	</image>
</g>
<g id="Location">
	<circle id="东区操场" fill="#0000FF" cx="2858.94" cy="1303.76" r="8"/>
	<circle id="香樟" fill="#0000FF" cx="2994.47" cy="1199.29" r="8"/>
	<circle id="图书馆" fill="#0000FF" cx="2441.06" cy="1089.18" r="8"/>
	<circle id="东区二教" fill="#0000FF" cx="2552.59" cy="957.88" r="8"/>
	<circle id="东区一教" fill="#0000FF" cx="2590.71" cy="789.88" r="8"/>
	<circle id="东门" fill="#0000FF" cx="3026.47" cy="420.94" r="8"/>
	<circle id="东区后街" fill="#0000FF" cx="2428.82" cy="608.24" r="8"/>
	<circle id="艺术大楼" fill="#0000FF" cx="2183.18" cy="730.12" r="8"/>
	<circle id="自然博物馆门" fill="#0000FF" cx="1655.65" cy="542.2" r="8"/>
	<circle id="农贸" fill="#0000FF" cx="1821.76" cy="784.24" r="8"/>
	<circle id="后街" fill="#0000FF" cx="1583.65" cy="888.71" r="8"/>
	<circle id="计科院" fill="#0000FF" cx="2014.24" cy="872.71" r="8"/>
	<circle id="商学院" fill="#0000FF" cx="1872.59" cy="596.71" r="8"/>
	<circle id="珙桐园" fill="#0000FF" cx="1728.59" cy="1533.88" r="8"/>
	<circle id="松林园" fill="#0000FF" cx="2282" cy="1626.59" r="8"/>
	<circle id="实验大楼" fill="#0000FF" cx="2469.76" cy="1642.59" r="8"/>
	<circle id="银杏园" fill="#0000FF" cx="1074" cy="1591.76" r="8"/>
	<circle id="银杏餐厅" fill="#0000FF" cx="846.24" cy="1541.88" r="8"/>
	<circle id="沉积地质研究院" fill="#0000FF" cx="689.53" cy="1484.71" r="8"/>
	<circle id="八教" fill="#0000FF" cx="1450.47" cy="1190.82" r="8"/>
	<circle id="九教" fill="#0000FF" cx="1290.24" cy="880.71" r="8"/>
	<circle id="地规院" fill="#0000FF" cx="1509.06" cy="600.24" r="8"/>
	<circle id="现代教学大楼" fill="#0000FF" cx="1249.29" cy="504.94" r="8"/>
	<circle id="二教" fill="#0000FF" cx="1363.65" cy="694.82" r="8"/>
	<circle id="芙蓉" fill="#0000FF" cx="1114.47" cy="408.94" r="8"/>
	<circle id="芙蓉餐厅" fill="#0000FF" cx="637.29" cy="706.82" r="8"/>
	<circle id="砚湖图书馆" fill="#0000FF" cx="779.88" cy="869.18" r="8"/>
	<circle id="体育学院" fill="#0000FF" cx="464.35" cy="864.71" r="8"/>
	<circle id="西区操场" fill="#0000FF" cx="515.41" cy="1107.97" r="8"/>
	<circle id="网球场" fill="#0000FF" cx="496.12" cy="1320" r="8"/>
	<circle id="篮球场" fill="#0000FF" cx="632.35" cy="1657.65" r="8"/>
	<circle id="榕树园" fill="#0000FF" cx="653.29" cy="1380" r="8"/>
	<circle id="西门" fill="#0000FF" cx="12.59" cy="792.71" r="8"/>
	<circle id="西北门" fill="#0000FF" cx="673.53" cy="488.94" r="8"/>
	<circle id="理工大学地铁口" fill="#0000FF" cx="288.12" cy="674.59" r="8"/>
</g>
<g id="Vertice">
	<circle id="_x30__00000063615078341111430510000007577594251187259282_" fill="#808080" cx="1395.57" cy="1009.18" r="3"/>
	<circle id="_x30__00000090986712538657793210000006700876912436290233_" fill="#808080" cx="1279.96" cy="1000.08" r="3"/>
	<circle id="_x30__00000120537077651813607940000012907111788513974682_" fill="#808080" cx="1266.92" cy="1152.39" r="3"/>
	<circle id="_x30__00000064323491459835113720000016549198047973071283_" fill="#808080" cx="1032.43" cy="1132" r="3"/>
	<circle id="_x30__00000123440086410177091580000011140788535347773101_" fill="#808080" cx="865.84" cy="1119.09" r="3"/>
	<circle id="_x30__00000064352177254345606170000009024757054979520689_" fill="#808080" cx="868.84" cy="1294.51" r="3"/>
	<circle id="_x30__00000038406357863061410200000000690327138299763073_" fill="#808080" cx="414.24" cy="827.53" r="3"/>
	<circle id="_x30__00000051368912822793446520000005528271852376905146_" fill="#808080" cx="545.53" cy="753.65" r="3"/>
	<circle id="_x30__00000026861648576043262090000006545569752035130557_" fill="#808080" cx="748.51" cy="645.41" r="3"/>
	<circle id="_x30__00000149358883282038590800000008165413327364178318_" fill="#808080" cx="1119.47" cy="509.94" r="3"/>
	<circle id="_x30__00000012471797311073986320000008451048248811245975_" fill="#808080" cx="1106.47" cy="672.39" r="3"/>
	<circle id="_x30__00000157277346980717839390000010660162403585048756_" fill="#808080" cx="987.25" cy="776.86" r="3"/>
	<circle id="_x30__00000051356173206386255420000013382770908570599321_" fill="#808080" cx="773.29" cy="961.33" r="3"/>
	<circle id="_x30__00000181049926690859890780000002277883432602084500_" fill="#808080" cx="969.06" cy="973.57" r="3"/>
	<circle id="_x30__00000067934731520856291190000011867628318235685768_" fill="#808080" cx="1054.39" cy="903.92" r="3"/>
	<circle id="_x30__00000155117490530628117130000004095777998929289918_" fill="#808080" cx="1180.51" cy="890.12" r="3"/>
	<circle id="_x30__00000183250075091971893320000012832356344800887730_" fill="#808080" cx="1295.24" cy="803.53" r="3"/>
	<circle id="_x30__00000072276387616978392280000000428003217527678599_" fill="#808080" cx="1305.37" cy="691.82" r="3"/>
	<circle id="_x30__00000067928921904533074170000009810107519710293158_" fill="#808080" cx="997.61" cy="663.39" r="3"/>
	<circle id="_x30__00000034774172990183418470000000316906777001741997_" fill="#808080" cx="537.06" cy="920.24" r="3"/>
	<circle id="_x30__00000135682326760689639750000008060988743682265765_" fill="#808080" cx="652.82" cy="992.08" r="3"/>
	<circle id="_x30__00000116950957022608867610000001134079369541400495_" fill="#808080" cx="652.82" cy="1333.1" r="3"/>
	<circle id="_x30__00000175295532198747822370000005438930663420028581_" fill="#808080" cx="645.29" cy="1453.88" r="3"/>
	<circle id="_x30__00000167374869836351748590000007319771297920221095_" fill="#808080" cx="801.22" cy="1779.22" r="3"/>
	<circle id="_x30__00000108269523136443687910000017854114178073624496_" fill="#808080" cx="830.71" cy="1721.49" r="3"/>
	<circle id="_x30__00000134969744089621438010000014365473087702657676_" fill="#808080" cx="1256.12" cy="1596.76" r="3"/>
	<circle id="_x30__00000026877831265560187740000003276832630589554082_" fill="#808080" cx="1375.18" cy="1577.65" r="3"/>
	<circle id="_x30__00000046329174650830042280000018342223057938747287_" fill="#808080" cx="1926.24" cy="1482.43" r="3"/>
	<circle id="_x30__00000165951135224575925110000009354572803051003024_" fill="#808080" cx="2055.18" cy="1084.18" r="3"/>
	<circle id="_x30__00000054244796040934747360000018052192015877242011_" fill="#808080" cx="1608.43" cy="716.12" r="3"/>
	<circle id="_x30__00000039132894278716196660000004960694259571040944_" fill="#808080" cx="1839.02" cy="666.75" r="3"/>
	<circle id="_x30__00000098926946666984844410000005145390074573553048_" fill="#808080" cx="1956.04" cy="735.12" r="3"/>
	<circle id="_x30__00000153675766695093130180000009978690240429615488_" fill="#808080" cx="2147.41" cy="815.45" r="3"/>
	<circle id="_x30__00000143618803937346508000000017940022891827964839_" fill="#808080" cx="2299.88" cy="844.63" r="3"/>
	<circle id="_x30__00000041985302032788075130000017496732797357751999_" fill="#808080" cx="2293.88" cy="1130.12" r="3"/>
	<circle id="_x30__00000138556634489877328370000005359210155699719846_" fill="#808080" cx="1482.94" cy="705.82" r="3"/>
	<circle id="_x30__00000150808647013492097000000017285436670938145932_" fill="#808080" cx="2014.39" cy="1565.71" r="3"/>
	<circle id="_x30__00000013910269406475571600000007139261543991111323_" fill="#808080" cx="2175.96" cy="1604.78" r="3"/>
	<circle id="_x30__00000082359755894099215720000001896676088586040479_" fill="#808080" cx="2720.27" cy="1059.5" r="3"/>
	<circle id="_x30__00000034800162644445342210000002580513491667123350_" fill="#808080" cx="2688.27" cy="710.67" r="3"/>
	<circle id="_x30__00000063599041860341379470000000286906399804833426_" fill="#808080" cx="3002.47" cy="1141.88" r="3"/>
	<circle id="_x30__00000152984164922119143050000002922954830888347785_" fill="#808080" cx="2147.41" cy="256.24" r="3"/>
	<circle id="_x30__00000013884508900567871170000008584182212235417754_" fill="#808080" cx="2512.59" cy="1246.35" r="3"/>
	<circle id="_x30__00000000200239884576417120000009049709128903527554_" fill="#808080" cx="2218.47" cy="1325.41" r="3"/>
	<circle id="_x30__00000023253196113179888630000014214766197235978678_" fill="#808080" cx="1459.1" cy="1568.71" r="3"/>
	<circle id="_x30__00000063627916123596138490000009374284228080271784_" fill="#808080" cx="520.29" cy="1065.5" r="3"/>
</g>
<g id="Test">
	<polyline fill="none" stroke="#FF0000" stroke-width="3" stroke-miterlimit="10" points="773.29,961.33 770.29,1086.74 
		779.88,1102.35 814.71,1115.97 865.84,1119.09 	"/>
	
		<line fill="#808080" stroke="#CC3333" stroke-width="3" stroke-miterlimit="10" x1="1305.37" y1="691.82" x2="1363.65" y2="694.82"/>
	
		<line fill="#808080" stroke="#CC3333" stroke-width="3" stroke-miterlimit="10" x1="1305.37" y1="691.82" x2="1106.47" y2="672.39"/>
	
		<line fill="#808080" stroke="#CC3333" stroke-width="3" stroke-miterlimit="10" x1="1363.65" y1="694.82" x2="1482.94" y2="705.82"/>
	<line fill="none" stroke="#CC3333" stroke-width="3" stroke-miterlimit="10" x1="12.59" y1="792.71" x2="414.24" y2="827.53"/>
	<line fill="none" stroke="#CC3333" stroke-width="3" stroke-miterlimit="10" x1="414.24" y1="827.53" x2="545.53" y2="753.65"/>
	<line fill="none" stroke="#CC3333" stroke-width="3" stroke-miterlimit="10" x1="545.53" y1="753.65" x2="637.29" y2="706.82"/>
	<line fill="none" stroke="#CC3333" stroke-width="3" stroke-miterlimit="10" x1="464.35" y1="864.71" x2="414.24" y2="827.53"/>
	<line fill="none" stroke="#CC3333" stroke-width="3" stroke-miterlimit="10" x1="464.35" y1="864.71" x2="537.06" y2="920.24"/>
	<line fill="none" stroke="#CC3333" stroke-width="3" stroke-miterlimit="10" x1="515.41" y1="1107.97" x2="520.29" y2="1065.5"/>
	<line fill="none" stroke="#CC3333" stroke-width="3" stroke-miterlimit="10" x1="537.06" y1="920.24" x2="520.29" y2="1065.5"/>
	<line fill="none" stroke="#CC3333" stroke-width="3" stroke-miterlimit="10" x1="652.82" y1="992.08" x2="537.06" y2="920.24"/>
	<line fill="none" stroke="#CC3333" stroke-width="3" stroke-miterlimit="10" x1="515.41" y1="1107.97" x2="496.12" y2="1320"/>
	<line fill="none" stroke="#CC3333" stroke-width="3" stroke-miterlimit="10" x1="496.12" y1="1320" x2="652.82" y2="1333.1"/>
	<line fill="none" stroke="#CC3333" stroke-width="3" stroke-miterlimit="10" x1="652.82" y1="1333.1" x2="653.29" y2="1380"/>
	<line fill="none" stroke="#CC3333" stroke-width="3" stroke-miterlimit="10" x1="653.29" y1="1380" x2="645.29" y2="1453.88"/>
	<line fill="none" stroke="#CC3333" stroke-width="3" stroke-miterlimit="10" x1="645.29" y1="1453.88" x2="632.35" y2="1657.65"/>
	<line fill="none" stroke="#CC3333" stroke-width="3" stroke-miterlimit="10" x1="689.53" y1="1484.71" x2="645.29" y2="1453.88"/>
	<line fill="none" stroke="#CC3333" stroke-width="3" stroke-miterlimit="10" x1="846.24" y1="1541.88" x2="689.53" y2="1484.71"/>
	<line fill="none" stroke="#CC3333" stroke-width="3" stroke-miterlimit="10" x1="652.82" y1="992.08" x2="773.29" y2="961.33"/>
	<line fill="none" stroke="#CC3333" stroke-width="3" stroke-miterlimit="10" x1="779.88" y1="869.18" x2="773.29" y2="961.33"/>
	<line fill="none" stroke="#CC3333" stroke-width="3" stroke-miterlimit="10" x1="969.06" y1="973.57" x2="773.29" y2="961.33"/>
	<line fill="none" stroke="#CC3333" stroke-width="3" stroke-miterlimit="10" x1="748.51" y1="645.41" x2="637.29" y2="706.82"/>
	<line fill="none" stroke="#CC3333" stroke-width="3" stroke-miterlimit="10" x1="673.53" y1="488.94" x2="748.51" y2="645.41"/>
	<polyline fill="none" stroke="#CC3333" stroke-width="3" stroke-miterlimit="10" points="748.51,645.41 795.25,620.63 815.65,636 
		871.18,645.41 997.61,663.39 	"/>
	<polyline fill="none" stroke="#CC3333" stroke-width="3" stroke-miterlimit="10" points="748.51,645.41 795.25,620.63 
		937.69,552.55 1058.47,509.94 1119.47,509.94 	"/>
	<polyline fill="none" stroke="#CC3333" stroke-width="3" stroke-miterlimit="10" points="1114.47,408.94 1124.67,439.61 
		1119.47,509.94 	"/>
	<line fill="none" stroke="#CC3333" stroke-width="3" stroke-miterlimit="10" x1="997.61" y1="663.39" x2="987.25" y2="776.86"/>
	<line fill="none" stroke="#CC3333" stroke-width="3" stroke-miterlimit="10" x1="997.61" y1="663.39" x2="1106.47" y2="672.39"/>
	<line fill="none" stroke="#CC3333" stroke-width="3" stroke-miterlimit="10" x1="1119.47" y1="509.94" x2="1106.47" y2="672.39"/>
	<polyline fill="none" stroke="#CC3333" stroke-width="3" stroke-miterlimit="10" points="632.35,1657.65 626.94,1762.12 
		801.22,1779.22 	"/>
	<polyline fill="none" stroke="#CC3333" stroke-width="3" stroke-miterlimit="10" points="801.22,1779.22 827.71,1555.76 
		846.24,1541.88 	"/>
	<polyline fill="none" stroke="#CC3333" stroke-width="3" stroke-miterlimit="10" points="801.22,1779.22 821.76,1779.22 
		830.71,1721.49 846.24,1541.88 	"/>
	<polyline fill="none" stroke="#CC3333" stroke-width="3" stroke-miterlimit="10" points="830.71,1721.49 1055.18,1754.59 
		1074,1591.76 	"/>
	<line fill="none" stroke="#CC3333" stroke-width="3" stroke-miterlimit="10" x1="846.24" y1="1541.88" x2="868.84" y2="1294.51"/>
	<line fill="none" stroke="#CC3333" stroke-width="3" stroke-miterlimit="10" x1="1032.43" y1="1132" x2="1266.92" y2="1152.39"/>
	<polyline fill="none" stroke="#CC3333" stroke-width="3" stroke-miterlimit="10" points="748.51,645.41 795.25,620.63 
		804.59,756.65 779.88,869.18 	"/>
	<polyline fill="none" stroke="#CC3333" stroke-width="3" stroke-miterlimit="10" points="987.25,776.86 1023.18,781.88 
		1013.23,836.94 1025.53,867.06 1038.71,869.18 1043.88,892.47 1054.39,903.92 	"/>
	<polyline fill="none" stroke="#CC3333" stroke-width="3" stroke-miterlimit="10" points="1180.51,890.12 1258,840.39 
		1292.24,827.53 1290.24,880.71 	"/>
	<line fill="none" stroke="#CC3333" stroke-width="3" stroke-miterlimit="10" x1="1290.24" y1="880.71" x2="1295.24" y2="803.53"/>
	<polyline fill="none" stroke="#CC3333" stroke-width="3" stroke-miterlimit="10" points="1295.24,803.53 1292.24,827.53 
		1258,840.39 1180.51,890.12 	"/>
	<line fill="none" stroke="#CC3333" stroke-width="3" stroke-miterlimit="10" x1="1295.24" y1="803.53" x2="987.25" y2="776.86"/>
	
		<line fill="none" stroke="#CC3333" stroke-width="3" stroke-miterlimit="10" x1="1279.96" y1="1000.08" x2="1266.92" y2="1152.39"/>
	<line fill="none" stroke="#CC3333" stroke-width="3" stroke-miterlimit="10" x1="1290.24" y1="880.71" x2="1279.96" y2="1000.08"/>
	
		<line fill="none" stroke="#CC3333" stroke-width="3" stroke-miterlimit="10" x1="1395.57" y1="1009.18" x2="1279.96" y2="1000.08"/>
	<polyline fill="none" stroke="#CC3333" stroke-width="3" stroke-miterlimit="10" points="1119.47,509.94 1262.94,524.24 
		1249.29,504.94 	"/>
	<polyline fill="none" stroke="#CC3333" stroke-width="3" stroke-miterlimit="10" points="1114.47,408.94 1124.67,439.61 
		1174.94,457.18 1192.35,499.06 1206.71,506.94 1249.29,504.94 	"/>
	<path fill="none" stroke="#CC3333" stroke-width="3" stroke-miterlimit="10" d="M1106.47,672.39"/>
	
		<line fill="#808080" stroke="#CC3333" stroke-width="3" stroke-miterlimit="10" x1="1305.37" y1="691.82" x2="1295.24" y2="803.53"/>
	<polyline fill="none" stroke="#CC3333" stroke-width="3" stroke-miterlimit="10" points="1249.29,504.94 1262.94,524.24 
		1279.96,528.08 1290.24,538.75 1285.1,608.24 1305.37,691.82 	"/>
	<polyline fill="none" stroke="#CC3333" stroke-width="3" stroke-miterlimit="10" points="1482.94,705.82 1444.12,1009.18 
		1395.57,1009.18 	"/>
	<polyline fill="none" stroke="#CC3333" stroke-width="3" stroke-miterlimit="10" points="1509.06,600.24 1506.24,682.11 
		1485.94,682.11 1482.94,705.82 	"/>
	<line fill="none" stroke="#CC3333" stroke-width="3" stroke-miterlimit="10" x1="1482.94" y1="705.82" x2="1608.43" y2="716.12"/>
	<polyline fill="none" stroke="#CC3333" stroke-width="3" stroke-miterlimit="10" points="1395.57,1009.18 1387.18,1093.18 
		1439.25,1115.76 1452.82,1139.76 1450.47,1190.82 	"/>
	
		<line fill="none" stroke="#CC3333" stroke-width="3" stroke-miterlimit="10" x1="1256.12" y1="1596.76" x2="1375.18" y2="1577.65"/>
	
		<line fill="none" stroke="#CC3333" stroke-width="3" stroke-miterlimit="10" x1="1450.47" y1="1190.82" x2="1375.18" y2="1577.65"/>
	<line fill="none" stroke="#CC3333" stroke-width="3" stroke-miterlimit="10" x1="1375.18" y1="1577.65" x2="1459.1" y2="1568.71"/>
	<line fill="none" stroke="#CC3333" stroke-width="3" stroke-miterlimit="10" x1="1459.1" y1="1568.71" x2="1728.59" y2="1533.88"/>
	<line fill="none" stroke="#CC3333" stroke-width="3" stroke-miterlimit="10" x1="1583.65" y1="888.71" x2="1459.1" y2="1568.71"/>
	<line fill="none" stroke="#CC3333" stroke-width="3" stroke-miterlimit="10" x1="1608.43" y1="716.12" x2="1583.65" y2="888.71"/>
	<line fill="none" stroke="#CC3333" stroke-width="3" stroke-miterlimit="10" x1="1608.43" y1="716.12" x2="1655.65" y2="542.2"/>
	<line fill="none" stroke="#CC3333" stroke-width="3" stroke-miterlimit="10" x1="1655.65" y1="542.2" x2="1839.02" y2="666.75"/>
	<line fill="none" stroke="#CC3333" stroke-width="3" stroke-miterlimit="10" x1="1872.59" y1="596.71" x2="1839.02" y2="666.75"/>
	<line fill="none" stroke="#CC3333" stroke-width="3" stroke-miterlimit="10" x1="1839.02" y1="666.75" x2="1956.04" y2="735.12"/>
	<polyline fill="none" stroke="#CC3333" stroke-width="3" stroke-miterlimit="10" points="1956.04,735.12 1924.04,797.25 
		1837.76,764.31 1821.76,784.24 	"/>
	<polyline fill="none" stroke="#CC3333" stroke-width="3" stroke-miterlimit="10" points="1608.43,716.12 1802.31,806.53 
		1821.76,784.24 	"/>
	<line fill="none" stroke="#CC3333" stroke-width="3" stroke-miterlimit="10" x1="2014.24" y1="872.71" x2="1821.76" y2="784.24"/>
	<polyline fill="none" stroke="#CC3333" stroke-width="3" stroke-miterlimit="10" points="1956.04,735.12 2058.18,780.31 
		2014.24,872.71 	"/>
	<line fill="none" stroke="#CC3333" stroke-width="3" stroke-miterlimit="10" x1="2147.41" y1="815.45" x2="2183.18" y2="730.12"/>
	<line fill="none" stroke="#CC3333" stroke-width="3" stroke-miterlimit="10" x1="2147.41" y1="815.45" x2="1956.04" y2="735.12"/>
	<polyline fill="none" stroke="#CC3333" stroke-width="3" stroke-miterlimit="10" points="2014.24,872.71 2058.18,780.31 
		2147.41,815.45 	"/>
	<polyline fill="none" stroke="#CC3333" stroke-width="3" stroke-miterlimit="10" points="1728.59,1533.88 1765.76,1510.82 
		1926.24,1482.43 	"/>
	
		<line fill="none" stroke="#CC3333" stroke-width="3" stroke-miterlimit="10" x1="2055.18" y1="1084.18" x2="1926.24" y2="1482.43"/>
	
		<line fill="none" stroke="#CC3333" stroke-width="3" stroke-miterlimit="10" x1="2055.18" y1="1084.18" x2="2293.88" y2="1130.12"/>
	<polyline fill="none" stroke="#CC3333" stroke-width="3" stroke-miterlimit="10" points="1926.24,1482.43 1943.18,1506.12 
		2014.24,1548.94 2014.39,1565.71 	"/>
	<polyline fill="none" stroke="#CC3333" stroke-width="3" stroke-miterlimit="10" points="1728.59,1533.88 1857.53,1533.88 
		2014.39,1565.71 	"/>
	
		<line fill="none" stroke="#CC3333" stroke-width="3" stroke-miterlimit="10" x1="2014.39" y1="1565.71" x2="2175.96" y2="1604.78"/>
	
		<line fill="none" stroke="#CC3333" stroke-width="3" stroke-miterlimit="10" x1="2218.47" y1="1325.41" x2="2175.96" y2="1604.78"/>
	<polyline fill="none" stroke="#CC3333" stroke-width="3" stroke-miterlimit="10" points="2293.88,1130.12 2311.65,1226.12 
		2357.29,1273.65 2391.65,1288.24 2218.47,1325.41 	"/>
	<polyline fill="none" stroke="#CC3333" stroke-width="3" stroke-miterlimit="10" points="2293.88,1130.12 2311.65,1226.12 
		2357.29,1273.65 2391.65,1288.24 2512.59,1246.35 	"/>
	<line fill="none" stroke="#CC3333" stroke-width="3" stroke-miterlimit="10" x1="2175.96" y1="1604.78" x2="2282" y2="1626.59"/>
	<line fill="none" stroke="#CC3333" stroke-width="3" stroke-miterlimit="10" x1="2282" y1="1626.59" x2="2469.76" y2="1642.59"/>
	<polyline fill="none" stroke="#CC3333" stroke-width="3" stroke-miterlimit="10" points="2469.76,1642.59 2596.82,1618.59 
		2667.88,1582.35 2714.94,1559.76 2805.76,1485.43 2897.06,1382.35 2938.47,1299.53 2994.47,1199.29 	"/>
	<polyline fill="none" stroke="#CC3333" stroke-width="3" stroke-miterlimit="10" points="2469.76,1642.59 2596.82,1618.59 
		2668.86,1581.88 2592.12,1411.53 2512.59,1246.35 	"/>
	<polyline fill="none" stroke="#CC3333" stroke-width="3" stroke-miterlimit="10" points="2469.76,1642.59 2596.82,1618.59 
		2714.94,1559.76 2805.76,1485.43 2897.06,1382.35 2858.94,1303.76 	"/>
	
		<line fill="none" stroke="#CC3333" stroke-width="3" stroke-miterlimit="10" x1="2858.94" y1="1303.76" x2="2994.47" y2="1199.29"/>
	<polyline fill="none" stroke="#CC3333" stroke-width="3" stroke-miterlimit="10" points="2293.88,1130.12 2371.41,1118.35 
		2441.06,1089.18 	"/>
	<polyline fill="none" stroke="#CC3333" stroke-width="3" stroke-miterlimit="10" points="2441.06,1089.18 2478.71,1072.71 
		2515.59,1039.29 2548.82,983.76 2552.59,957.88 	"/>
	
		<line fill="none" stroke="#CC3333" stroke-width="3" stroke-miterlimit="10" x1="3002.47" y1="1141.88" x2="2994.47" y2="1199.29"/>
	<polyline fill="none" stroke="#CC3333" stroke-width="3" stroke-miterlimit="10" points="2299.88,844.63 2204.35,792.24 
		2147.41,815.45 	"/>
	<polyline fill="none" stroke="#CC3333" stroke-width="3" stroke-miterlimit="10" points="2590.71,789.88 2524.82,847.63 
		2544.59,904.47 2552.59,957.88 	"/>
	<polyline fill="none" stroke="#CC3333" stroke-width="3" stroke-miterlimit="10" points="2299.88,844.63 2367.47,810.12 
		2329.06,735.12 2310.24,616.24 2428.82,608.24 	"/>
	<polyline fill="none" stroke="#CC3333" stroke-width="3" stroke-miterlimit="10" points="2299.88,844.63 2367.47,810.12 
		2435.73,803.91 2509.59,832.24 2524.82,847.63 2590.71,789.88 	"/>
	<polyline fill="none" stroke="#CC3333" stroke-width="3" stroke-miterlimit="10" points="1821.76,784.24 1802.31,806.53 
		1902.24,854.35 1885.76,885.08 2089.53,965.88 2055.18,1084.18 	"/>
	<polyline fill="none" stroke="#CC3333" stroke-width="3" stroke-miterlimit="10" points="2293.88,1130.12 2350.47,1076.24 
		2406.24,972.24 2408.43,912.39 2299.88,844.63 	"/>
	<polyline fill="none" stroke="#CC3333" stroke-width="3" stroke-miterlimit="10" points="2552.59,957.88 2406.24,972.24 
		2350.47,1076.24 2293.88,1130.12 	"/>
	<polyline fill="none" stroke="#CC3333" stroke-width="3" stroke-miterlimit="10" points="2590.71,789.88 2524.82,847.63 
		2408.43,912.39 2406.24,972.24 2350.47,1076.24 2293.88,1130.12 	"/>
	<polyline fill="none" stroke="#CC3333" stroke-width="3" stroke-miterlimit="10" points="969.06,973.57 980.59,945.06 
		996.94,925.88 1047.29,920.82 1057.39,909.65 1054.39,903.92 1082,885.41 1180.51,890.12 	"/>
	<path fill="none" stroke="#CC3333" stroke-width="3" stroke-miterlimit="10" d="M288.12,674.59"/>
	<line fill="none" stroke="#CC3333" stroke-width="3" stroke-miterlimit="10" x1="12.59" y1="792.71" x2="288.12" y2="674.59"/>
	<line fill="none" stroke="#CC3333" stroke-width="3" stroke-miterlimit="10" x1="846.24" y1="1541.88" x2="1074" y2="1591.76"/>
	<line fill="none" stroke="#CC3333" stroke-width="3" stroke-miterlimit="10" x1="1074" y1="1591.76" x2="1256.12" y2="1596.76"/>
	<polyline fill="none" stroke="#CC3333" stroke-width="3" stroke-miterlimit="10" points="652.82,992.08 657.53,1019.69 
		670.08,1054.2 652.82,1333.1 	"/>
	<line fill="none" stroke="#CC3333" stroke-width="3" stroke-miterlimit="10" x1="865.84" y1="1119.09" x2="1032.43" y2="1132"/>
	<polyline fill="none" stroke="#CC3333" stroke-width="3" stroke-miterlimit="10" points="865.84,1119.09 862.84,1167.65 
		867.53,1182.24 868.84,1294.51 	"/>
	<polyline fill="none" stroke="#CC3333" stroke-width="3" stroke-miterlimit="10" points="3002.47,1141.88 3072.59,997.08 
		3154.47,776.86 3143.18,669.75 3088.12,557.88 3026.47,420.94 	"/>
	<line fill="none" stroke="#CC3333" stroke-width="3" stroke-miterlimit="10" x1="2428.82" y1="608.24" x2="2688.27" y2="710.67"/>
	<line fill="none" stroke="#CC3333" stroke-width="3" stroke-miterlimit="10" x1="2688.27" y1="710.67" x2="2590.71" y2="789.88"/>
	<polyline fill="none" stroke="#CC3333" stroke-width="3" stroke-miterlimit="10" points="2688.27,710.67 2737.06,797.25 
		2754.47,896.24 2751.65,965.88 2720.27,1059.5 	"/>
	<line fill="none" stroke="#CC3333" stroke-width="3" stroke-miterlimit="10" x1="2688.27" y1="710.67" x2="3026.47" y2="420.94"/>
	<polyline fill="none" stroke="#CC3333" stroke-width="3" stroke-miterlimit="10" points="2688.27,710.67 2637.76,636 
		2550.86,567.29 2428.82,546.9 2358.24,546.9 2284.82,568.24 2231.49,608.24 2183.18,730.12 	"/>
	<polyline fill="none" stroke="#CC3333" stroke-width="3" stroke-miterlimit="10" points="2720.27,1059.5 2688.27,1111.92 
		2623.33,1177.8 2572.51,1218.27 2512.59,1246.35 	"/>
	<polyline fill="none" stroke="#CC3333" stroke-width="3" stroke-miterlimit="10" points="2720.27,1059.5 2548.82,983.76 
		2552.59,957.88 	"/>
	<polyline fill="none" stroke="#CC3333" stroke-width="3" stroke-miterlimit="10" points="2720.27,1059.5 2731.57,1025.78 
		3002.47,1141.88 	"/>
</g>
</svg>
